<?xml version="1.0" standalone="no"?>
<!DOCTYPE svg PUBLIC "-//W3C//DTD SVG 20010904//EN"
 "http://www.w3.org/TR/2001/REC-SVG-20010904/DTD/svg10.dtd">
<svg version="1.0" xmlns="http://www.w3.org/2000/svg"
 width="700.000000pt" height="700.000000pt" viewBox="0 0 700.000000 700.000000"
 preserveAspectRatio="xMidYMid meet">
<metadata>
Created by potrace 1.11, written by Peter Selinger 2001-2013
</metadata>
<g transform="translate(0.000000,700.000000) scale(0.100000,-0.100000)"
fill="#000000" stroke="none">
<path d="M95 6981 c-22 -10 -51 -33 -65 -52 l-25 -34 -3 -3370 c-2 -2393 0
-3381 8 -3407 6 -21 23 -50 37 -64 58 -58 -193 -54 3452 -54 3731 0 3407 -6
3466 68 l30 37 3 3380 2 3381 -22 44 c-17 33 -35 51 -68 68 l-44 22 -3366 0
c-3246 0 -3366 -1 -3405 -19z m3403 -873 c1 -148 6 -268 10 -268 4 0 155 -1
336 -1 371 -1 396 -5 491 -77 68 -52 109 -118 145 -237 17 -55 42 -134 54
-175 13 -41 31 -102 41 -135 9 -33 20 -67 23 -75 3 -8 6 -19 8 -25 3 -10 98
-321 141 -460 13 -44 28 -93 32 -110 5 -16 25 -82 44 -145 20 -63 61 -198 92
-300 30 -102 62 -205 70 -230 8 -25 80 -259 159 -520 252 -831 527 -1733 546
-1790 26 -78 22 -208 -8 -274 -30 -67 -82 -127 -139 -164 -93 -59 -100 -59
-653 -58 -499 2 -506 2 -562 24 -75 30 -159 110 -192 182 -19 41 -99 359 -130
515 -2 6 -13 54 -25 107 l-23 97 -229 0 -229 0 -2 -682 -3 -682 -1432 0 c-950
0 -1433 3 -1434 10 -3 19 -5 5730 -3 5735 1 3 648 6 1436 5 l1433 0 3 -267z"/>
<path d="M2820 5614 c-68 -28 -52 14 -325 -884 -70 -228 -214 -703 -322 -1055
-189 -621 -226 -741 -297 -977 -19 -62 -100 -329 -181 -593 -189 -617 -195
-639 -197 -678 -2 -57 46 -124 105 -146 39 -15 945 -15 984 0 15 5 42 24 60
41 35 34 36 38 114 373 28 121 53 229 55 240 3 11 7 31 10 45 2 14 7 31 10 39
2 8 7 28 10 45 2 17 10 54 17 81 l13 50 624 0 625 0 57 -250 c32 -137 74 -319
93 -403 43 -188 60 -223 118 -251 42 -20 56 -21 510 -21 519 0 522 0 566 65
47 69 46 83 -24 310 -20 66 -86 282 -146 480 -159 520 -176 578 -214 701 -19
61 -35 116 -35 123 0 6 -4 19 -10 29 -5 9 -18 49 -29 87 -10 39 -76 257 -146
485 -116 378 -239 782 -285 935 -10 33 -51 166 -90 295 -40 129 -80 262 -90
295 -148 495 -152 505 -214 534 -41 21 -56 21 -687 20 -541 0 -650 -2 -679
-15z m704 -862 c4 -14 35 -143 61 -252 2 -8 17 -76 33 -150 17 -74 47 -207 67
-295 20 -88 38 -167 40 -175 13 -59 61 -262 82 -345 14 -55 27 -109 29 -120 2
-11 19 -83 39 -160 19 -77 35 -145 35 -152 0 -10 -87 -13 -416 -13 -273 0
-413 3 -409 10 3 5 8 18 10 27 2 10 26 113 55 228 28 116 53 217 55 225 2 8
37 161 78 340 41 179 85 370 98 425 13 55 23 102 24 105 1 3 5 21 9 40 25 118
60 257 68 272 10 20 35 14 42 -10z"/>
</g>
</svg>
